# xmcd
#
# Track frame offsets:
#	150
#	22249
#	42244
#	67341
#	95433
#	113176
#	147728
#	174814
#	188084
#	205593
#	228350
#
# Disc length: 3291 seconds
#
# Revision: 0
# Processed by: cddbd v1.4b42PL1 Copyright (c) Steve Scherf et al.
# Submitted via: audiograbber 1.80.04
#
DISCID=9c0cd90b
DTITLE=Eddy Clearwater - Reservation Blues
DYEAR=2000
DGENRE=Blues
TTITLE0=Winds Of Change
TTITLE1=I Wouldn't Lay My Guitar Down
TTITLE2=Find Yourself
TTITLE3=Reservation Blues
TTITLE4=Walls Of Hate
TTITLE5=Running Along
TTITLE6=Blues Cruise
TTITLE7=Susie-Q
TTITLE8=Easy Is My Style 
TTITLE9=Everything To Gain
TTITLE10=Sweet Little Rock and Roller
EXTD=Released Sept 12, 2000\nBullseye Blues CD 619636\nGuests: Duke Robillard a
EXTD=nd Carey Bell\n
EXTT0=
EXTT1=
EXTT2=
EXTT3=
EXTT4=
EXTT5=
EXTT6=
EXTT7=
EXTT8=
EXTT9=
EXTT10=
PLAYORDER=
